<svg xmlns="http://www.w3.org/2000/svg" xmlns:xlink="http://www.w3.org/1999/xlink" viewBox="0 0 96.94 62.91"><defs><style>.a{fill:none;}.b{clip-path:url(#a);}.c{fill:#fff3ad;}.d{fill:#8c6239;}.e{fill:#42210b;}</style><clipPath id="a" transform="translate(0 0)"><rect class="a" width="96.94" height="62.91"/></clipPath></defs><title>atd_logo</title><g class="b"><path class="c" d="M75.76,56.59c-4.48,6.16-13.34,4.77-15.94-2.5l-3.4-9.53-2-5.49C51.21,30,58.05,20.39,66.81,21.76l5.56.88,21,3.3a2.75,2.75,0,0,1,1.55,4.33L81.63,48.53Z" transform="translate(0 0)"/><path class="d" d="M76.55,52,64.62,31.94,45.65,0,34.37,14.18l-5.25-1.59L7.34,5.94,10.8,30.62l1.58,11.22L0,57.4l41.8,3.25,29,2.25c5.25.4,8.65-6,5.76-10.87" transform="translate(0 0)"/><path d="M74.12,36a4.62,4.62,0,0,1-4.36-4.83,5.26,5.26,0,0,1,.07-.89,5.34,5.34,0,0,0,3,1,5.61,5.61,0,0,0,4.8-2.86,5.15,5.15,0,0,1,.8,2.78A4.62,4.62,0,0,1,74.12,36" transform="translate(0 0)"/><path d="M77.57,29.79a4.38,4.38,0,0,1,.22,1.41,3.67,3.67,0,1,1-7.33.31,5.91,5.91,0,0,0,2.42.52,6.14,6.14,0,0,0,4.69-2.24m0-2.7a5.07,5.07,0,0,1-4.66,3.42A4.8,4.8,0,0,1,69.46,29a6.09,6.09,0,0,0-.39,2.16,5.08,5.08,0,1,0,10.1,0,5.86,5.86,0,0,0-1.63-4.11" transform="translate(0 0)"/><path d="M91.29,31.37A5.46,5.46,0,0,1,87.85,30a3.55,3.55,0,0,1-1.24-2.75c.07-2.07,2.14-3.69,4.7-3.69h.26A5.35,5.35,0,0,1,95,24.94a3.57,3.57,0,0,1,1.25,2.74c-.07,2.07-2.14,3.69-4.7,3.69Z" transform="translate(0 0)"/><path d="M91.31,24.33h.23a4.8,4.8,0,0,1,3,1.18,2.84,2.84,0,0,1,1,2.13c-.06,1.63-1.86,3-4,3h-.23c-2.24-.1-4.08-1.62-4-3.32s1.85-3,4-3m0-1.52c-2.92,0-5.3,1.93-5.39,4.42s2.3,4.77,5.34,4.9h.29c2.91,0,5.3-1.94,5.39-4.43S94.64,23,91.6,22.82h-.29" transform="translate(0 0)"/><path class="e" d="M41.92,24.42h0a3,3,0,0,1-2.61,3.21,2.89,2.89,0,0,1-2.9-2.89A3,3,0,0,1,39,21.54a2.88,2.88,0,0,1,2.9,2.88" transform="translate(0 0)"/><path class="e" d="M54.71,54.44h0a2,2,0,0,1-2.77-1l-3-6.83a2.42,2.42,0,0,1,.94-3.07,2,2,0,0,1,2.77,1l3.06,6.84a2.4,2.4,0,0,1-.95,3.06" transform="translate(0 0)"/><path class="e" d="M24,54.1h0a1.32,1.32,0,0,1-1.93-.37l-4-6.23a1.65,1.65,0,0,1,.34-2.13,1.3,1.3,0,0,1,1.92.37l4,6.23A1.64,1.64,0,0,1,24,54.1" transform="translate(0 0)"/><path class="e" d="M33.65,37.8h0a2,2,0,0,1,2.83.84l4.83,9.24A2.43,2.43,0,0,1,40.55,51a2,2,0,0,1-2.83-.84l-4.83-9.24a2.42,2.42,0,0,1,.76-3.12" transform="translate(0 0)"/><path class="e" d="M57.23,37.05h0a3.26,3.26,0,0,1-4.81-.92l-3.17-5a4.06,4.06,0,0,1,.83-5.3,3.24,3.24,0,0,1,4.8.92l3.18,5a4.09,4.09,0,0,1-.83,5.31" transform="translate(0 0)"/><path class="e" d="M27.25,34.85,25,35.77c-.77.32-1.83-.68-2.35-2.22L19.09,23c-.52-1.54-.32-3.06.46-3.38l1.29,1.76c.78-.32.49-2,1-.42L27.7,31.46c.52,1.55-2.43-.39-.45,3.39" transform="translate(0 0)"/></g></svg>